<?xml version="1.0" encoding="UTF-8" standalone="no"?>
<!-- Created with Inkscape (http://www.inkscape.org/) -->

<svg
   xmlns:dc="http://purl.org/dc/elements/1.1/"
   xmlns:cc="http://creativecommons.org/ns#"
   xmlns:rdf="http://www.w3.org/1999/02/22-rdf-syntax-ns#"
   xmlns:svg="http://www.w3.org/2000/svg"
   xmlns="http://www.w3.org/2000/svg"
   xmlns:sodipodi="http://sodipodi.sourceforge.net/DTD/sodipodi-0.dtd"
   xmlns:inkscape="http://www.inkscape.org/namespaces/inkscape"
   width="64"
   height="64"
   viewBox="0 0 16.933333 16.933334"
   version="1.1"
   id="svg8"
   inkscape:version="0.92.4 (5da689c313, 2019-01-14)"
   sodipodi:docname="touch.svg">
  <defs
     id="defs2" />
  <sodipodi:namedview
     id="base"
     pagecolor="#ffffff"
     bordercolor="#666666"
     borderopacity="1.0"
     inkscape:pageopacity="0.0"
     inkscape:pageshadow="2"
     inkscape:zoom="2.8"
     inkscape:cx="-42.868702"
     inkscape:cy="42.342957"
     inkscape:document-units="px"
     inkscape:current-layer="layer4"
     showgrid="false"
     units="px"
     inkscape:window-width="1270"
     inkscape:window-height="768"
     inkscape:window-x="0"
     inkscape:window-y="0"
     inkscape:window-maximized="0" />
  <metadata
     id="metadata5">
    <rdf:RDF>
      <cc:Work
         rdf:about="">
        <dc:format>image/svg+xml</dc:format>
        <dc:type
           rdf:resource="http://purl.org/dc/dcmitype/StillImage" />
        <dc:title />
      </cc:Work>
    </rdf:RDF>
  </metadata>
  <g
     inkscape:label="Layer 1"
     inkscape:groupmode="layer"
     id="layer1"
     transform="translate(0,-280.06666)"
     style="display:none">
    <rect
       style="opacity:1;fill:none;fill-opacity:1;stroke:#050200;stroke-width:0.8101542;stroke-linecap:butt;stroke-miterlimit:4;stroke-dasharray:none;stroke-dashoffset:0;stroke-opacity:1"
       id="rect817"
       width="14.816667"
       height="9.260417"
       x="1.0665355"
       y="283.63034" />
  </g>
  <g
     inkscape:groupmode="layer"
     id="layer2"
     inkscape:label="Layer 2" />
  <g
     inkscape:groupmode="layer"
     id="layer3"
     inkscape:label="Layer 3">
    <path
       style="opacity:1;vector-effect:none;fill:none;fill-opacity:1;stroke:#000000;stroke-width:1.0583334;stroke-linecap:butt;stroke-linejoin:miter;stroke-miterlimit:4;stroke-dasharray:none;stroke-dashoffset:0;stroke-opacity:1"
       d="M 5.5408592,17.489316 C 5.7448795,16.541543 5.4575811,14.62005 4.9639542,13.801073 4.8106354,13.546702 4.5911565,13.460817 4.3617666,13.304579 4.165884,13.171163 4.0012038,12.94903 3.8767986,12.750885 3.8199149,12.660284 3.8074139,12.558096 3.7756679,12.458022 3.6418275,12.036118 3.8791818,11.826791 4.1824893,11.567993 4.2716036,11.491957 4.3377944,11.39237 4.4307194,11.32089 4.6740226,11.133737 4.9659216,11.054586 5.2397654,10.929644 5.4983056,10.811684 5.5377336,10.540489 5.4879956,10.29587 5.3622613,8.9355564 5.4986424,7.5113808 5.8488484,6.1866377 5.8917471,6.0243624 6.0609167,5.3587051 6.3039367,5.3949924 c 0.1832166,0.027358 0.2954621,0.1858801 0.3838374,0.3340468 0.5265172,0.88274 0.3102875,1.8981685 0.3102875,2.8737174 0,0.3678005 0.021762,0.7346956 0.0023,1.102812 -0.00268,0.050625 0.00549,0.7080374 0.080445,0.6520774 0.044109,-0.03293 0.018314,-0.312838 0.025284,-0.3706544 0.030558,-0.2534899 0.2004566,-0.6770082 0.4665806,-0.7733414 0.080492,-0.029137 0.1375942,0.02659 0.2091568,0.050336 0.08177,0.027133 0.1692963,0.031911 0.2459316,0.075504 0.2361358,0.1343224 0.4163644,0.5493378 0.441298,0.8099498 0.018809,0.196581 -0.04492,-0.2190058 0.016089,0.08466 0.00614,0.03056 0.060867,0.10859 0.048267,0.08008 -0.010276,-0.02325 -0.065729,-0.07136 -0.041372,-0.06406 0.03946,0.01179 0.2088103,0.21971 0.2712143,0.14872 0.012893,-0.01467 -0.068846,0.02731 -0.057461,0.01144 0.017984,-0.02506 0.068943,-0.01713 0.080445,-0.04576 0.088203,-0.219507 0.1409533,-0.444327 0.2827065,-0.6429256 0.2719538,-0.3810125 0.9694006,-0.5793161 1.3790566,-0.3020148 0.238681,0.1615663 0.252541,1.0053004 0.275811,1.0593404 0.0036,0.0084 0.0012,-0.01836 0.0023,-0.02746 0.0072,-0.05982 0.01822,-0.118725 0.03677,-0.176175 0.04338,-0.134334 0.131197,-0.272555 0.209157,-0.3889592 0.248137,-0.3705154 0.850171,-0.7534561 1.298611,-0.5079342 0.650032,0.3558953 0.698722,0.6048743 0.698722,1.2904284 0,0.131818 -0.08612,0.420628 -0.02528,0.533101 0.04795,0.161595 0.04965,0.273305 0.02068,0.423272 -0.0769,0.398068 -0.286842,0.754119 -0.466581,1.111964 -0.0594,0.118252 -0.06589,0.250916 -0.133308,0.368367 -0.435307,0.758327 -0.911315,1.55518 -1.029695,2.438999 -0.01428,0.106603 0.0031,0.215185 -0.0069,0.322606 -0.02473,0.264689 -0.126575,1.447247 -0.06436,1.670234"
       id="path835"
       inkscape:connector-curvature="0"
       sodipodi:nodetypes="cssscccscscsscccssccccccccsscccccsccccccc" />
  </g>
  <g
     inkscape:groupmode="layer"
     id="layer4"
     inkscape:label="Layer 4">
    <circle
       style="opacity:1;fill:none;fill-opacity:1;stroke:#050200;stroke-width:0.85777539;stroke-linecap:butt;stroke-miterlimit:4;stroke-dasharray:none;stroke-dashoffset:0;stroke-opacity:1"
       id="path842"
       cx="6.344378"
       cy="5.9474964"
       r="2.2169456" />
    <circle
       style="opacity:1;fill:none;fill-opacity:1;stroke:#050200;stroke-width:1.0583334;stroke-linecap:butt;stroke-miterlimit:4;stroke-dasharray:none;stroke-dashoffset:0;stroke-opacity:1"
       id="path842-3"
       cx="6.383399"
       cy="6.0151796"
       r="4.3982677" />
  </g>
</svg>
